# xmcd
#
# Track frame offsets:
#	150
#	10950
#	23020
#	34805
#	46045
#	57480
#	71120
#	81422
#	93710
#	104710
#	115575
#	126935
#
# Disc length: 1842
#
# Revision: 2
# Processed by: cddbd v1.5.1PL0 Copyright (c) Steve Scherf et al.
# Submitted via: ExactAudioCopy v0.90b2
# Normalized: r0:DSETVAR1,TDELIM( - );r1:TSWAP
#
DISCID=a407300c
DTITLE=Various Artist - Virgin MegaMusic New Orleans
DYEAR=2002
DGENRE=Blues
TTITLE0=Fats Domino - Jambalaya (On The Bayou)
TTITLE1=Aaron Neville - Tell It Like It Is
TTITLE2=Ernie K-Doe - Mother-In-Law
TTITLE3=Irma Thomas - Wish Someone Would Care
TTITLE4=Guitar Jr. - Go To The Mardi Gras
TTITLE5=Snooks Eaglin - C.C. Rider
TTITLE6=Eddie Bo - Dinky Doo
TTITLE7=Smiley Lewis - I Hear You Knocking
TTITLE8=Jimmy Griffin - Walking to New Orleans
TTITLE9=Larry Williams - Short Fat Fannie
TTITLE10=Earl King - Always A First Time
TTITLE11=Dave Bartholomew - When The Saints Go Marching In Boogie
EXTD=
EXTT0=
EXTT1=
EXTT2=
EXTT3=
EXTT4=
EXTT5=
EXTT6=
EXTT7=
EXTT8=
EXTT9=
EXTT10=
EXTT11=
PLAYORDER=
